<svg width="64" height="64" viewBox="0 0 64 64" fill="none" xmlns="http://www.w3.org/2000/svg">
<path d="M53.9476 29.5425C53.8719 29.2219 53.7181 28.9251 53.5001 28.6782C53.282 28.4314 53.0063 28.2422 52.6976 28.1275L38.2951 22.725L41.9601 4.39249C42.0431 3.96654 41.9853 3.52516 41.7954 3.13495C41.6055 2.74473 41.2939 2.42686 40.9075 2.2293C40.5211 2.03173 40.081 1.9652 39.6535 2.03973C39.226 2.11427 38.8343 2.32583 38.5376 2.64249L10.5376 32.6425C10.3102 32.8821 10.1457 33.1743 10.0587 33.4931C9.97183 33.8118 9.96521 34.1471 10.0395 34.469C10.1138 34.7909 10.2666 35.0894 10.4844 35.3378C10.7022 35.5862 10.9782 35.7768 11.2876 35.8925L25.6951 41.295L22.0401 59.6075C21.9571 60.0334 22.0149 60.4748 22.2048 60.865C22.3946 61.2553 22.7063 61.5731 23.0926 61.7707C23.479 61.9683 23.9192 62.0348 24.3467 61.9603C24.7742 61.8857 25.1659 61.6742 25.4626 61.3575L53.4626 31.3575C53.6859 31.1178 53.8469 30.827 53.9315 30.5105C54.016 30.194 54.0216 29.8616 53.9476 29.5425ZM27.3426 53.5L29.9601 40.405C30.0538 39.9406 29.9795 39.458 29.7506 39.0432C29.5217 38.6284 29.153 38.3083 28.7101 38.14L15.5001 33.1775L36.6551 10.5125L34.0401 23.6075C33.9464 24.0719 34.0206 24.5545 34.2496 24.9693C34.4785 25.3841 34.8472 25.7042 35.2901 25.8725L48.4901 30.8225L27.3426 53.5Z" fill="#009CFE"/>
</svg>
