<svg width="53" height="44" viewBox="0 0 53 44" fill="none" xmlns="http://www.w3.org/2000/svg">
<path d="M52 42C52 42.5304 51.7893 43.0391 51.4142 43.4142C51.0392 43.7893 50.5304 44 50 44H2C1.46957 44 0.960859 43.7893 0.585786 43.4142C0.210714 43.0391 0 42.5304 0 42V2C0 1.46957 0.210714 0.96086 0.585786 0.585787C0.960859 0.210714 1.46957 0 2 0C2.53043 0 3.03914 0.210714 3.41421 0.585787C3.78929 0.96086 4 1.46957 4 2V25.5925L16.6825 14.5C17.0276 14.1979 17.4661 14.0236 17.9244 14.0063C18.3827 13.989 18.8331 14.1298 19.2 14.405L33.9025 25.4325L48.6825 12.5C48.8763 12.3082 49.1073 12.158 49.3612 12.0587C49.6152 11.9594 49.8868 11.9131 50.1593 11.9226C50.4318 11.9321 50.6995 11.9972 50.9459 12.114C51.1923 12.2308 51.4122 12.3967 51.5922 12.6015C51.7721 12.8064 51.9083 13.0459 51.9923 13.3053C52.0763 13.5648 52.1063 13.8386 52.0806 14.1101C52.0549 14.3815 51.9739 14.6449 51.8427 14.8839C51.7115 15.1229 51.5327 15.3326 51.3175 15.5L35.3175 29.5C34.9724 29.8021 34.5339 29.9764 34.0756 29.9937C33.6173 30.011 33.1669 29.8702 32.8 29.595L18.0975 18.5725L4 30.9075V40H50C50.5304 40 51.0392 40.2107 51.4142 40.5858C51.7893 40.9609 52 41.4696 52 42Z" fill="#009CFE"/>
</svg>
