<svg width="44" height="56" viewBox="0 0 44 56" fill="none" xmlns="http://www.w3.org/2000/svg">
<path d="M36 8.2025V4C36 2.93913 35.5786 1.92172 34.8284 1.17157C34.0783 0.421427 33.0609 0 32 0H12C10.9391 0 9.92172 0.421427 9.17157 1.17157C8.42143 1.92172 8 2.93913 8 4V8.2025C5.74277 8.66565 3.71437 9.89319 2.25699 11.678C0.79961 13.4629 0.00245351 15.6957 0 18V46C0 48.6522 1.05357 51.1957 2.92893 53.0711C4.8043 54.9464 7.34784 56 10 56H34C36.6522 56 39.1957 54.9464 41.0711 53.0711C42.9464 51.1957 44 48.6522 44 46V18C43.9975 15.6957 43.2004 13.4629 41.743 11.678C40.2856 9.89319 38.2572 8.66565 36 8.2025ZM32 8H28V4H32V8ZM20 8V4H24V8H20ZM16 4V8H12V4H16ZM40 46C40 47.5913 39.3679 49.1174 38.2426 50.2426C37.1174 51.3679 35.5913 52 34 52H10C8.4087 52 6.88258 51.3679 5.75736 50.2426C4.63214 49.1174 4 47.5913 4 46V18C4 16.4087 4.63214 14.8826 5.75736 13.7574C6.88258 12.6321 8.4087 12 10 12H34C35.5913 12 37.1174 12.6321 38.2426 13.7574C39.3679 14.8826 40 16.4087 40 18V46ZM30 36C30 37.5913 29.3679 39.1174 28.2426 40.2426C27.1174 41.3679 25.5913 42 24 42V44C24 44.5304 23.7893 45.0391 23.4142 45.4142C23.0391 45.7893 22.5304 46 22 46C21.4696 46 20.9609 45.7893 20.5858 45.4142C20.2107 45.0391 20 44.5304 20 44V42H18C17.4696 42 16.9609 41.7893 16.5858 41.4142C16.2107 41.0391 16 40.5304 16 40C16 39.4696 16.2107 38.9609 16.5858 38.5858C16.9609 38.2107 17.4696 38 18 38H24C24.5304 38 25.0391 37.7893 25.4142 37.4142C25.7893 37.0391 26 36.5304 26 36C26 35.4696 25.7893 34.9609 25.4142 34.5858C25.0391 34.2107 24.5304 34 24 34H20C18.4087 34 16.8826 33.3679 15.7574 32.2426C14.6321 31.1174 14 29.5913 14 28C14 26.4087 14.6321 24.8826 15.7574 23.7574C16.8826 22.6321 18.4087 22 20 22V20C20 19.4696 20.2107 18.9609 20.5858 18.5858C20.9609 18.2107 21.4696 18 22 18C22.5304 18 23.0391 18.2107 23.4142 18.5858C23.7893 18.9609 24 19.4696 24 20V22H26C26.5304 22 27.0391 22.2107 27.4142 22.5858C27.7893 22.9609 28 23.4696 28 24C28 24.5304 27.7893 25.0391 27.4142 25.4142C27.0391 25.7893 26.5304 26 26 26H20C19.4696 26 18.9609 26.2107 18.5858 26.5858C18.2107 26.9609 18 27.4696 18 28C18 28.5304 18.2107 29.0391 18.5858 29.4142C18.9609 29.7893 19.4696 30 20 30H24C25.5913 30 27.1174 30.6321 28.2426 31.7574C29.3679 32.8826 30 34.4087 30 36Z" fill="#009CFE"/>
</svg>
