<svg width="52" height="56" viewBox="0 0 52 56" fill="none" xmlns="http://www.w3.org/2000/svg">
<path d="M26 15.9952C23.6266 15.9952 21.3065 16.699 19.3332 18.0175C17.3598 19.3361 15.8217 21.2102 14.9134 23.403C14.0052 25.5957 13.7676 28.0085 14.2306 30.3362C14.6936 32.664 15.8365 34.8022 17.5147 36.4804C19.1929 38.1587 21.3311 39.3016 23.6589 39.7646C25.9867 40.2276 28.3995 39.99 30.5922 39.0817C32.7849 38.1735 34.6591 36.6354 35.9776 34.662C37.2962 32.6886 38 30.3685 38 27.9952C37.996 24.8138 36.7305 21.7638 34.4809 19.5143C32.2313 17.2647 29.1814 15.9991 26 15.9952ZM26 35.9952C24.4177 35.9952 22.871 35.526 21.5554 34.6469C20.2398 33.7679 19.2145 32.5184 18.609 31.0566C18.0035 29.5948 17.845 27.9863 18.1537 26.4344C18.4624 24.8826 19.2243 23.4571 20.3431 22.3383C21.462 21.2195 22.8874 20.4576 24.4393 20.1489C25.9911 19.8402 27.5997 19.9986 29.0615 20.6041C30.5233 21.2096 31.7727 22.235 32.6518 23.5506C33.5308 24.8662 34 26.4129 34 27.9952C34 30.1169 33.1571 32.1517 31.6569 33.652C30.1566 35.1523 28.1217 35.9952 26 35.9952ZM49.92 12.5327L27.92 0.495162C27.3322 0.170368 26.6716 0 26 0C25.3284 0 24.6678 0.170368 24.08 0.495162L2.08 12.5377C1.45172 12.8814 0.927258 13.3876 0.561379 14.0032C0.1955 14.6189 0.00162564 15.3215 0 16.0377V39.9477C0.00162564 40.6638 0.1955 41.3664 0.561379 41.9821C0.927258 42.5978 1.45172 43.1039 2.08 43.4477L24.08 55.4902C24.6678 55.815 25.3284 55.9853 26 55.9853C26.6716 55.9853 27.3322 55.815 27.92 55.4902L49.92 43.4477C50.5483 43.1039 51.0727 42.5978 51.4386 41.9821C51.8045 41.3664 51.9984 40.6638 52 39.9477V16.0402C51.9997 15.3227 51.8065 14.6185 51.4405 14.0015C51.0746 13.3844 50.5494 12.877 49.92 12.5327ZM26 51.9952L4 39.9502V16.0402L26 3.99516L48 16.0377V39.9477L26 51.9952Z" fill="#009CFE"/>
</svg>
