<svg width="41" height="67" viewBox="0 0 41 67" fill="none" xmlns="http://www.w3.org/2000/svg">
<path d="M28.0012 66.268C27.5047 66.6069 26.894 66.7347 26.3033 66.6233C25.7126 66.5119 25.1904 66.1704 24.8515 65.674C24.5126 65.1775 24.3848 64.5668 24.4963 63.9761C24.6077 63.3854 24.9492 62.8632 25.4456 62.5243C29.5173 59.7441 32.6732 55.8191 34.5144 51.2455C36.3555 46.6718 36.7992 41.6549 35.7893 36.8291C34.7794 32.0034 32.3614 27.5854 28.8408 24.1337C25.3202 20.6821 20.8553 18.3519 16.0105 17.4376L7.2368 15.7501L14.3604 26.1857C14.6993 26.6822 14.8271 27.2929 14.7157 27.8836C14.6043 28.4742 14.2628 28.9965 13.7663 29.3354C13.2699 29.6742 12.6592 29.802 12.0685 29.6906C11.4778 29.5792 10.9556 29.2377 10.6167 28.7413L0.394477 13.7664C0.0555885 13.27 -0.0722081 12.6592 0.0392025 12.0686C0.150615 11.4779 0.492106 10.9557 0.988554 10.6168L15.9634 0.394558C16.4599 0.0556703 17.0706 -0.0721248 17.6613 0.0392864C18.2519 0.150698 18.7742 0.492189 19.113 0.988636C19.4519 1.48508 19.5797 2.09582 19.4683 2.68649C19.3569 3.27716 19.0154 3.79938 18.519 4.13827L8.04359 11.289L16.859 12.9824C22.5844 14.0638 27.8606 16.8186 32.0205 20.8984C36.1805 24.9782 39.0373 30.1999 40.2299 35.9032C41.4225 41.6065 40.8972 47.5354 38.7206 52.9402C36.5439 58.345 32.8136 62.9831 28.0012 66.268Z" fill="#009CFE"/>
</svg>
