<svg width="473" height="112" viewBox="0 0 473 112" fill="none" xmlns="http://www.w3.org/2000/svg">
<path d="M22.796 63.1865H40.0762L37.145 77.7157H19.8689L22.796 63.1865Z" fill="#009CFE"/>
<path d="M43.0033 48.6582H60.2794L57.3523 63.1874H40.0761L43.0033 48.6582Z" fill="#4D4CFF"/>
<path d="M63.2105 34.1279H80.4866L77.5595 48.6571H60.2794L63.2105 34.1279Z" fill="#009CFE"/>
<path d="M28.6542 34.1279H45.9304L43.0032 48.6571H25.7231L28.6542 34.1279Z" fill="#48F57F"/>
<path d="M95.9507 78.2758C101.228 78.2758 105.7 76.7623 109.316 73.7394C112.992 70.6567 115.063 66.7894 115.537 62.026C115.967 57.7127 114.903 54.2914 112.291 51.7703C109.678 49.2492 106.042 48.0186 101.267 48.0186C95.9905 48.0186 91.5699 49.532 87.9498 52.6147C84.3337 55.6416 82.3225 59.5089 81.8486 64.2683C81.4185 68.5857 82.4818 72.0029 85.0386 74.524C87.5954 77.0451 91.2354 78.2798 95.9507 78.2798V78.2758ZM91.5938 63.9298C92.0677 59.1664 95.0944 55.8607 99.754 55.8607C103.625 55.8607 106.138 58.2703 105.732 62.3606C105.258 67.124 102.235 70.4297 97.5716 70.4297C93.6966 70.4297 91.1876 68.0201 91.5938 63.9298Z" fill="white"/>
<path d="M128.058 77.7165L134.107 55.8629H142.642L144.657 48.5784H136.122L136.907 45.7745C137.787 42.5803 139.739 41.0111 142.825 41.0111C144.06 41.0111 145.33 41.2341 146.624 41.7399L149.265 34.3997C147.007 33.9496 144.84 33.7266 142.761 33.7266C134.621 33.7266 129.599 37.3708 127.644 44.5956L126.572 48.5744H120.563L118.548 55.8589H124.557L118.508 77.7125H128.054L128.058 77.7165Z" fill="white"/>
<path d="M149.089 48.5801L140.969 77.7182H150.738L158.747 48.5801H149.089Z" fill="white"/>
<path d="M162.957 74.5219C165.681 77.043 169.321 78.2777 173.869 78.2777C179.201 78.2777 183.682 76.7085 187.369 73.5143L182.869 67.4086C180.523 69.5394 178.118 70.6028 175.589 70.6028C171.714 70.6028 169.169 67.9702 169.599 63.6569C170.085 58.7819 173.873 55.6992 178.365 55.6992C181.005 55.6992 183.18 56.9897 184.836 59.5108L191.647 53.684C188.206 49.9282 183.845 48.0244 178.624 48.0244C173.403 48.0244 169.102 49.4821 165.561 52.3378C162.076 55.1974 160.057 59.1205 159.559 64.1069C159.121 68.5358 160.232 72.0088 162.957 74.5299V74.5219Z" fill="white"/>
<path d="M199.636 77.7182L207.644 48.5801H197.991L189.866 77.7182H199.636Z" fill="white"/>
<path d="M216.083 77.7182L220.791 60.9069C221.738 57.6011 223.877 55.8646 226.625 55.8646C229.373 55.8646 230.966 57.9357 230.165 60.9069L225.514 77.7182H235.06L239.978 59.8992C241.121 55.7531 240.914 52.7262 239.305 50.8782C237.696 48.9704 235.211 48.0186 231.842 48.0186C228.19 48.0186 225.131 49.4205 222.67 52.1646L223.53 48.5801H214.602L206.533 77.7182H216.079H216.083Z" fill="white"/>
<path d="M254.933 78.2749C259.425 78.2749 262.838 76.7057 265.232 73.5115L264.14 77.7133H272.675L280.744 48.5752H271.369L269.859 53.0001C268.593 49.9174 264.909 48.0137 260.026 48.0137C255.646 48.0137 251.902 49.5271 248.74 52.554C245.63 55.581 243.849 59.3925 243.384 64.0404C242.953 68.3578 243.842 71.8308 246 74.4076C248.214 76.9845 251.173 78.2749 254.937 78.2749H254.933ZM253.137 63.5943C253.583 59.1137 256.769 55.8598 261.261 55.8598C265.248 55.8598 267.86 58.3809 267.43 62.6982C266.984 67.1789 263.798 70.4288 259.306 70.4288C255.319 70.4288 252.707 67.9077 253.137 63.5943Z" fill="white"/>
<path d="M295.578 78.2758C300.855 78.2758 305.328 76.7623 308.944 73.7394C312.62 70.6567 314.691 66.7894 315.164 62.026C315.595 57.7127 314.531 54.2914 311.919 51.7703C309.306 49.2492 305.666 48.0186 300.895 48.0186C295.618 48.0186 291.198 49.532 287.578 52.6147C283.961 55.6416 281.95 59.5089 281.476 64.2683C281.046 68.5857 282.11 72.0029 284.666 74.524C287.223 77.0451 290.863 78.2798 295.578 78.2798V78.2758ZM291.222 63.9298C291.695 59.1664 294.722 55.8607 299.382 55.8607C303.253 55.8607 305.766 58.2703 305.359 62.3606C304.886 67.124 301.863 70.4297 297.199 70.4297C293.324 70.4297 290.815 68.0201 291.222 63.9298Z" fill="white"/>
<path d="M330.095 60.9069C331.043 57.6011 333.181 55.8646 335.929 55.8646C338.677 55.8646 340.27 57.9357 339.47 60.9069L334.818 77.7182H344.364L349.283 59.8992C350.425 55.7531 350.218 52.7262 348.609 50.8782C347.001 48.9704 344.515 48.0186 341.146 48.0186C337.494 48.0186 334.436 49.4205 331.975 52.1646L332.835 48.5801H323.906L315.837 77.7182H325.383L330.091 60.9069H330.095Z" fill="white"/>
<path d="M372.25 34.4561H362.704L350.648 77.7171H360.25L372.25 34.4561Z" fill="white"/>
<path d="M376.921 77.7182L384.93 48.5801H375.272L367.152 77.7182H376.921Z" fill="white"/>
<path d="M393.373 77.7182L398.08 60.9069C399.028 57.6011 401.167 55.8646 403.915 55.8646C406.663 55.8646 408.256 57.9357 407.455 60.9069L402.804 77.7182H412.35L417.268 59.8992C418.411 55.7531 418.204 52.7262 416.595 50.8782C414.986 48.9704 412.501 48.0186 409.132 48.0186C405.48 48.0186 402.421 49.4205 399.96 52.1646L400.82 48.5801H391.892L383.823 77.7182H393.369H393.373Z" fill="white"/>
<path d="M435.253 78.2758C440.251 78.2758 444.779 76.7623 448.842 73.7394L445.476 67.5183C442.856 70.1509 440.032 71.4413 437.057 71.4413C432.676 71.4413 430.386 69.6491 430.243 66.0088L430.223 65.6145H450.717C451.777 63.428 452.438 61.2972 452.649 59.1704C453.342 52.2244 448.483 48.0186 439.554 48.0186C434.556 48.0186 430.315 49.4763 426.707 52.4434C423.102 55.3588 421.091 59.2221 420.605 64.0971C419.733 72.8393 424.923 78.2758 435.253 78.2758ZM438.961 54.5702C441.824 54.5702 443.314 55.9722 443.075 58.3818C443.035 58.7761 442.935 59.2221 442.776 59.6722H431.434C432.876 56.478 435.647 54.5742 438.961 54.5742V54.5702Z" fill="white"/>
<path d="M160.145 43.1071C161.248 42.0118 161.778 40.7054 161.786 39.192C161.794 37.6785 161.284 36.3722 160.193 35.3287C158.07 33.1899 154.521 33.1899 152.371 35.3287C151.268 36.3722 150.738 37.6785 150.73 39.192C150.722 40.7054 151.232 42.0118 152.323 43.1071C154.446 45.2458 157.994 45.2458 160.145 43.1071Z" fill="white"/>
<path d="M209.13 43.1071C210.233 42.0118 210.763 40.7054 210.771 39.192C210.779 37.6785 210.269 36.3722 209.178 35.3287C207.055 33.1899 203.507 33.1899 201.356 35.3287C200.253 36.3722 199.723 37.6785 199.715 39.192C199.707 40.7054 200.217 42.0118 201.308 43.1071C203.431 45.2458 206.979 45.2458 209.13 43.1071Z" fill="white"/>
<path d="M386.415 43.1071C387.519 42.0118 388.048 40.7054 388.056 39.192C388.064 37.6785 387.554 36.3722 386.463 35.3287C384.34 33.1899 380.792 33.1899 378.641 35.3287C377.538 36.3722 377.009 37.6785 377.001 39.192C376.993 40.7054 377.502 42.0118 378.594 43.1071C380.716 45.2458 384.265 45.2458 386.415 43.1071Z" fill="white"/>
</svg>
