<svg width="217" height="52" viewBox="0 0 217 52" fill="none" xmlns="http://www.w3.org/2000/svg">
<path d="M10.4674 29.0139H18.402L17.0561 35.6854H9.12329L10.4674 29.0139Z" fill="#009CFE"/>
<path d="M19.7461 22.3425H27.6789L26.3348 29.0139H18.402L19.7461 22.3425Z" fill="#4D4CFF"/>
<path d="M29.0247 15.671H36.9575L35.6135 22.3425H27.6788L29.0247 15.671Z" fill="#009CFE"/>
<path d="M13.1573 15.671H21.0901L19.746 22.3425H11.8114L13.1573 15.671Z" fill="#48F57F"/>
<path d="M44.0584 35.9415C46.4814 35.9415 48.535 35.2465 50.1955 33.8584C51.8833 32.443 52.8342 30.6672 53.0518 28.4799C53.2493 26.4993 52.7611 24.9284 51.5615 23.7708C50.3619 22.6131 48.6923 22.048 46.4997 22.048C44.0767 22.048 42.0469 22.743 40.3846 24.1585C38.7242 25.5484 37.8007 27.3241 37.5831 29.5096C37.3856 31.492 37.8738 33.0611 39.0478 34.2187C40.2218 35.3764 41.8933 35.9433 44.0584 35.9433V35.9415ZM42.0578 29.3541C42.2755 27.1669 43.6652 25.649 45.8048 25.649C47.5823 25.649 48.7362 26.7554 48.5496 28.6336C48.332 30.8208 46.9441 32.3387 44.8027 32.3387C43.0234 32.3387 41.8713 31.2323 42.0578 29.3541Z" fill="#171717"/>
<path d="M58.8012 35.6854L61.5789 25.6508H65.4978L66.4231 22.3059H62.5043L62.8645 21.0184C63.2686 19.5517 64.1647 18.8312 65.5819 18.8312C66.1488 18.8312 66.7322 18.9336 67.3265 19.1659L68.5389 15.7954C67.502 15.5887 66.5072 15.4863 65.5527 15.4863C61.8148 15.4863 59.5089 17.1597 58.611 20.4771L58.1191 22.3041H55.3596L54.4343 25.649H57.1938L54.416 35.6836H58.7994L58.8012 35.6854Z" fill="#171717"/>
<path d="M68.4584 22.3059L64.7297 35.6854H69.2155L72.8929 22.3059H68.4584Z" fill="#171717"/>
<path d="M74.8258 34.2187C76.0766 35.3764 77.7481 35.9433 79.8364 35.9433C82.285 35.9433 84.3423 35.2227 86.0356 33.756L83.9692 30.9525C82.8921 31.9309 81.7876 32.4192 80.6264 32.4192C78.8471 32.4192 77.6786 31.2103 77.8761 29.2298C78.0992 26.9913 79.8382 25.5758 81.901 25.5758C83.1134 25.5758 84.1119 26.1683 84.8726 27.326L87.9996 24.6504C86.4196 22.9259 84.4172 22.0517 82.0198 22.0517C79.6224 22.0517 77.6475 22.721 76.0218 24.0323C74.4217 25.3454 73.4946 27.1467 73.266 29.4364C73.0648 31.47 73.575 33.0648 74.8258 34.2224V34.2187Z" fill="#171717"/>
<path d="M91.668 35.6854L95.3455 22.3059H90.9128L87.1823 35.6854H91.668Z" fill="#171717"/>
<path d="M99.2204 35.6854L101.382 27.966C101.817 26.4481 102.799 25.6508 104.061 25.6508C105.323 25.6508 106.054 26.6018 105.687 27.966L103.551 35.6854H107.934L110.192 27.5034C110.717 25.5996 110.622 24.2097 109.883 23.3611C109.145 22.4851 108.004 22.048 106.456 22.048C104.78 22.048 103.375 22.6918 102.245 23.9518L102.64 22.3059H98.5401L94.8352 35.6854H99.2186H99.2204Z" fill="#171717"/>
<path d="M117.059 35.9415C119.122 35.9415 120.689 35.2209 121.788 33.7542L121.287 35.6836H125.206L128.911 22.3041H124.606L123.913 24.3359C123.331 22.9204 121.64 22.0462 119.398 22.0462C117.386 22.0462 115.667 22.7412 114.216 24.131C112.787 25.5209 111.97 27.2711 111.756 29.4053C111.558 31.3877 111.966 32.9825 112.957 34.1657C113.974 35.3489 115.333 35.9415 117.061 35.9415H117.059ZM116.234 29.2005C116.439 27.1431 117.902 25.649 119.965 25.649C121.795 25.649 122.995 26.8066 122.798 28.789C122.593 30.8464 121.13 32.3387 119.067 32.3387C117.236 32.3387 116.037 31.1811 116.234 29.2005Z" fill="#171717"/>
<path d="M135.723 35.9415C138.146 35.9415 140.199 35.2465 141.86 33.8584C143.548 32.443 144.498 30.6672 144.716 28.4799C144.914 26.4993 144.425 24.9284 143.226 23.7708C142.026 22.6131 140.355 22.048 138.164 22.048C135.741 22.048 133.711 22.743 132.049 24.1585C130.388 25.5484 129.465 27.3241 129.247 29.5096C129.05 31.492 129.538 33.0611 130.712 34.2187C131.886 35.3764 133.557 35.9433 135.723 35.9433V35.9415ZM133.722 29.3541C133.94 27.1669 135.329 25.649 137.469 25.649C139.246 25.649 140.4 26.7554 140.214 28.6336C139.996 30.8208 138.608 32.3387 136.467 32.3387C134.688 32.3387 133.535 31.2323 133.722 29.3541Z" fill="#171717"/>
<path d="M151.572 27.966C152.007 26.4481 152.989 25.6508 154.251 25.6508C155.513 25.6508 156.244 26.6018 155.877 27.966L153.741 35.6854H158.124L160.382 27.5034C160.907 25.5996 160.812 24.2097 160.073 23.3611C159.335 22.4851 158.193 22.048 156.646 22.048C154.969 22.048 153.565 22.6918 152.435 23.9518L152.83 22.3059H148.73L145.025 35.6854H149.408L151.57 27.966H151.572Z" fill="#171717"/>
<path d="M170.928 15.821H166.545L161.01 35.6854H165.418L170.928 15.821Z" fill="#171717"/>
<path d="M173.073 35.6854L176.751 22.3059H172.316L168.588 35.6854H173.073Z" fill="#171717"/>
<path d="M180.628 35.6854L182.789 27.966C183.224 26.4481 184.206 25.6508 185.468 25.6508C186.73 25.6508 187.461 26.6018 187.094 27.966L184.958 35.6854H189.341L191.6 27.5034C192.124 25.5996 192.029 24.2097 191.291 23.3611C190.552 22.4851 189.411 22.048 187.864 22.048C186.187 22.048 184.782 22.6918 183.652 23.9518L184.047 22.3059H179.947L176.242 35.6854H180.626H180.628Z" fill="#171717"/>
<path d="M199.858 35.9415C202.153 35.9415 204.232 35.2465 206.097 33.8584L204.552 31.0019C203.349 32.2107 202.052 32.8032 200.686 32.8032C198.675 32.8032 197.623 31.9803 197.557 30.3087L197.548 30.1277H206.959C207.445 29.1237 207.749 28.1453 207.846 27.1687C208.164 23.9793 205.933 22.048 201.833 22.048C199.538 22.048 197.59 22.7174 195.934 24.0798C194.279 25.4185 193.355 27.1925 193.132 29.4309C192.732 33.4451 195.114 35.9415 199.858 35.9415ZM201.56 25.0564C202.875 25.0564 203.559 25.7002 203.449 26.8066C203.431 26.9876 203.385 27.1925 203.312 27.3991H198.104C198.766 25.9324 200.039 25.0583 201.56 25.0583V25.0564Z" fill="#171717"/>
<path d="M73.5347 19.7931C74.0412 19.2902 74.2845 18.6904 74.2881 17.9954C74.2918 17.3005 74.0577 16.7006 73.5566 16.2215C72.582 15.2394 70.9526 15.2394 69.9651 16.2215C69.4586 16.7006 69.2154 17.3005 69.2117 17.9954C69.2081 18.6904 69.4421 19.2902 69.9432 19.7931C70.9179 20.7752 72.5472 20.7752 73.5347 19.7931Z" fill="#171717"/>
<path d="M96.0276 19.7931C96.5342 19.2902 96.7774 18.6904 96.781 17.9954C96.7847 17.3005 96.5506 16.7006 96.0496 16.2215C95.0749 15.2394 93.4455 15.2394 92.458 16.2215C91.9515 16.7006 91.7083 17.3005 91.7046 17.9954C91.701 18.6904 91.935 19.2902 92.4361 19.7931C93.4108 20.7752 95.0401 20.7752 96.0276 19.7931Z" fill="#171717"/>
<path d="M177.433 19.7931C177.939 19.2902 178.183 18.6904 178.186 17.9954C178.19 17.3005 177.956 16.7006 177.455 16.2215C176.48 15.2394 174.851 15.2394 173.863 16.2215C173.357 16.7006 173.114 17.3005 173.11 17.9954C173.106 18.6904 173.34 19.2902 173.841 19.7931C174.816 20.7752 176.445 20.7752 177.433 19.7931Z" fill="#171717"/>
</svg>
