<svg width="105" height="105" viewBox="0 0 105 105" fill="none" xmlns="http://www.w3.org/2000/svg">
<path d="M96.3206 53.4006C96.3406 52.6805 96.3406 51.9605 96.3206 51.2405L103.781 41.9205C104.172 41.4312 104.442 40.8568 104.571 40.2437C104.7 39.6305 104.682 38.9958 104.521 38.3905C103.295 33.7943 101.466 29.3808 99.0806 25.2655C98.7679 24.7271 98.3339 24.2691 97.8131 23.928C97.2923 23.5869 96.699 23.372 96.0806 23.3005L84.2206 21.9805C83.7272 21.4605 83.2272 20.9605 82.7206 20.4805L81.3205 8.59054C81.2485 7.9716 81.0329 7.37805 80.6909 6.85719C80.3489 6.33634 79.8899 5.9026 79.3505 5.59054C75.2356 3.20679 70.8219 1.38078 66.2255 0.160541C65.6203 -0.00115834 64.9856 -0.0184374 64.3724 0.110096C63.7593 0.23863 63.1849 0.509382 62.6955 0.900541L53.4006 8.32054C52.6805 8.32054 51.9605 8.32054 51.2405 8.32054L41.9205 0.875541C41.4312 0.484383 40.8568 0.21363 40.2437 0.0850966C39.6305 -0.043437 38.9958 -0.0261589 38.3905 0.13554C33.7943 1.36068 29.3808 3.18996 25.2655 5.57554C24.7271 5.88817 24.2691 6.32217 23.928 6.84299C23.5869 7.3638 23.372 7.95706 23.3005 8.57554L21.9805 20.4555C21.4605 20.9522 20.9605 21.4522 20.4805 21.9555L8.59054 23.3205C7.9716 23.3926 7.37805 23.6082 6.85719 23.9502C6.33634 24.2922 5.9026 24.7512 5.59054 25.2905C3.20728 29.4064 1.37971 33.8198 0.155541 38.4155C-0.00547467 39.0212 -0.0219432 39.6562 0.107462 40.2693C0.236868 40.8825 0.508527 41.4566 0.900541 41.9455L8.32054 51.2405C8.32054 51.9605 8.32054 52.6805 8.32054 53.4006L0.875541 62.7206C0.484383 63.2099 0.21363 63.7843 0.0850966 64.3974C-0.043437 65.0106 -0.0261589 65.6453 0.13554 66.2505C1.36068 70.8468 3.18996 75.2603 5.57554 79.3755C5.88817 79.914 6.32217 80.372 6.84299 80.7131C7.3638 81.0542 7.95706 81.2691 8.57554 81.3405L20.4355 82.6605C20.9322 83.1805 21.4322 83.6805 21.9355 84.1605L23.3205 96.0506C23.3926 96.6695 23.6082 97.263 23.9502 97.7839C24.2922 98.3048 24.7512 98.7385 25.2905 99.0506C29.4064 101.434 33.8198 103.261 38.4155 104.486C39.0212 104.647 39.6562 104.663 40.2693 104.534C40.8825 104.404 41.4566 104.133 41.9455 103.741L51.2405 96.3206C51.9605 96.3406 52.6805 96.3406 53.4006 96.3206L62.7206 103.781C63.2099 104.172 63.7843 104.442 64.3974 104.571C65.0106 104.7 65.6453 104.682 66.2505 104.521C70.8475 103.298 75.2613 101.468 79.3755 99.0806C79.914 98.7679 80.372 98.3339 80.7131 97.8131C81.0542 97.2923 81.2691 96.699 81.3405 96.0806L82.6605 84.2206C83.1805 83.7272 83.6805 83.2272 84.1605 82.7206L96.0506 81.3205C96.6695 81.2485 97.263 81.0329 97.7839 80.6909C98.3048 80.3489 98.7385 79.8899 99.0506 79.3505C101.434 75.2347 103.261 70.8213 104.486 66.2255C104.647 65.6199 104.663 64.9849 104.534 64.3718C104.404 63.7586 104.133 63.1845 103.741 62.6955L96.3206 53.4006ZM52.3205 72.3205C48.3649 72.3205 44.4981 71.1476 41.2091 68.9499C37.9202 66.7523 35.3567 63.6287 33.843 59.9742C32.3292 56.3197 31.9331 52.2984 32.7048 48.4187C33.4765 44.5391 35.3814 40.9755 38.1784 38.1784C40.9755 35.3814 44.5391 33.4765 48.4187 32.7048C52.2984 31.9331 56.3197 32.3292 59.9742 33.843C63.6287 35.3567 66.7523 37.9202 68.9499 41.2091C71.1476 44.4981 72.3205 48.3649 72.3205 52.3205C72.3205 57.6249 70.2134 62.712 66.4627 66.4627C62.712 70.2134 57.6249 72.3205 52.3205 72.3205Z" fill="#009CFE"/>
</svg>
