<svg width="146" height="117" viewBox="0 0 146 117" fill="none" xmlns="http://www.w3.org/2000/svg">
<path d="M135.625 14.5312H121.094V4.84375C121.094 3.55911 120.583 2.32708 119.675 1.4187C118.767 0.510323 117.535 0 116.25 0H29.0625C27.7779 0 26.5458 0.510323 25.6375 1.4187C24.7291 2.32708 24.2188 3.55911 24.2188 4.84375V14.5312H9.6875C7.11822 14.5312 4.65416 15.5519 2.8374 17.3687C1.02064 19.1854 0 21.6495 0 24.2188V33.9062C0 40.3295 2.55161 46.4896 7.09351 51.0315C9.34243 53.2804 12.0123 55.0644 14.9506 56.2815C17.889 57.4986 21.0383 58.125 24.2188 58.125H26.4287C29.282 67.1672 34.7222 75.1751 42.0771 81.159C49.4319 87.143 58.379 90.8407 67.8125 91.7951V106.562H53.2812C51.9966 106.562 50.7646 107.073 49.8562 107.981C48.9478 108.89 48.4375 110.122 48.4375 111.406C48.4375 112.691 48.9478 113.923 49.8562 114.831C50.7646 115.74 51.9966 116.25 53.2812 116.25H92.0312C93.3159 116.25 94.5479 115.74 95.4563 114.831C96.3647 113.923 96.875 112.691 96.875 111.406C96.875 110.122 96.3647 108.89 95.4563 107.981C94.5479 107.073 93.3159 106.562 92.0312 106.562H77.5V91.777C96.8387 89.8213 112.884 76.2527 118.72 58.125H121.094C127.517 58.125 133.677 55.5734 138.219 51.0315C142.761 46.4896 145.312 40.3295 145.312 33.9062V24.2188C145.312 21.6495 144.292 19.1854 142.475 17.3687C140.658 15.5519 138.194 14.5312 135.625 14.5312ZM24.2188 48.4375C20.3648 48.4375 16.6687 46.9065 13.9436 44.1814C11.2185 41.4563 9.6875 37.7602 9.6875 33.9062V24.2188H24.2188V43.5938C24.2188 45.2083 24.2975 46.8229 24.4549 48.4375H24.2188ZM135.625 33.9062C135.625 37.7602 134.094 41.4563 131.369 44.1814C128.644 46.9065 124.948 48.4375 121.094 48.4375H120.791C120.99 46.6481 121.091 44.8492 121.094 43.0488V24.2188H135.625V33.9062Z" fill="url(#paint0_linear_1_804)"/>
<defs>
<linearGradient id="paint0_linear_1_804" x1="72.6562" y1="0" x2="72.6562" y2="116.25" gradientUnits="userSpaceOnUse">
<stop stop-color="#009DFF"/>
<stop offset="1" stop-color="#4D4CFF" stop-opacity="0.9"/>
</linearGradient>
</defs>
</svg>
