<svg width="100" height="100" viewBox="0 0 100 100" fill="none" xmlns="http://www.w3.org/2000/svg">
<path d="M38.9201 79.5737C36.6651 84.5037 29.1401 96.0037 7.99507 96.0037C6.93421 96.0037 5.91679 95.5823 5.16664 94.8322C4.4165 94.082 3.99507 93.0646 3.99507 92.0037C3.99507 70.8587 15.4951 63.3337 20.4251 61.0787C20.9031 60.8607 21.4194 60.739 21.9444 60.7206C22.4694 60.7021 22.993 60.7872 23.4851 60.9711C23.9773 61.1549 24.4284 61.4339 24.8127 61.7921C25.1971 62.1503 25.5071 62.5807 25.7251 63.0587C25.9431 63.5367 26.0648 64.053 26.0832 64.578C26.1017 65.1031 26.0166 65.6266 25.8327 66.1188C25.6489 66.6109 25.3699 67.0621 25.0117 67.4464C24.6535 67.8307 24.2231 68.1407 23.7451 68.3587C20.5301 69.8237 13.4351 74.5387 12.1851 87.8137C25.4601 86.5637 30.1851 79.4687 31.6401 76.2537C31.8581 75.7757 32.1681 75.3453 32.5524 74.9871C32.9367 74.6289 33.3879 74.3499 33.88 74.1661C34.3722 73.9822 34.8957 73.8971 35.4207 73.9156C35.9458 73.934 36.4621 74.0557 36.9401 74.2737C37.4181 74.4917 37.8485 74.8017 38.2067 75.1861C38.5649 75.5704 38.8439 76.0215 39.0277 76.5136C39.2116 77.0058 39.2967 77.5294 39.2782 78.0544C39.2598 78.5794 39.1381 79.0957 38.9201 79.5737ZM99.9201 7.57372C99.8016 5.62335 98.9733 3.7838 97.5917 2.40214C96.21 1.02047 94.3704 0.192247 92.4201 0.0737223C86.1301 -0.301278 70.0551 0.273722 56.7201 13.6087L31.9951 38.3537C31.6238 38.7257 31.1828 39.0209 30.6974 39.2224C30.212 39.424 29.6917 39.528 29.1661 39.5284C28.1047 39.5294 27.0863 39.1086 26.3351 38.3587C25.5838 37.6088 25.1613 36.5912 25.1603 35.5298C25.1594 34.4683 25.5802 33.4499 26.3301 32.6987L39.6101 19.4137C39.8881 19.1341 40.0772 18.7784 40.1537 18.3916C40.2302 18.0047 40.1906 17.6039 40.0399 17.2395C39.8892 16.8751 39.6342 16.5633 39.3068 16.3434C38.9795 16.1236 38.5944 16.0054 38.2001 16.0037H25.1701C24.1163 15.9982 23.0719 16.2022 22.0976 16.6039C21.1234 17.0056 20.2387 17.597 19.4951 18.3437L2.34507 35.5037C1.29331 36.5548 0.555282 37.8781 0.213814 39.3253C-0.127654 40.7725 -0.0590483 42.2862 0.411932 43.6965C0.882913 45.1069 1.73763 46.358 2.88016 47.3096C4.02268 48.2612 5.4078 48.8756 6.88007 49.0837L26.1151 51.7687L48.2201 73.8737L50.9051 93.1187C51.1115 94.5911 51.7257 95.9763 52.6782 97.1179C53.6307 98.2595 54.8835 99.1118 56.2951 99.5787C57.1172 99.8534 57.9783 99.9935 58.8451 99.9937C59.8946 99.9957 60.9342 99.7899 61.9039 99.3883C62.8736 98.9867 63.7542 98.3972 64.4951 97.6537L81.6551 80.5037C82.3995 79.7584 82.9895 78.8735 83.391 77.8996C83.7926 76.9257 83.9979 75.8821 83.9951 74.8287V61.7987C83.9944 61.4034 83.8766 61.0171 83.6564 60.6886C83.4363 60.3602 83.1238 60.1044 82.7583 59.9535C82.3929 59.8026 81.9909 59.7634 81.6032 59.8409C81.2155 59.9184 80.8595 60.109 80.5801 60.3887L67.2951 73.6687C66.9065 74.0577 66.442 74.3623 65.9304 74.5637C65.4188 74.7651 64.8712 74.8589 64.3218 74.8392C63.7724 74.8195 63.2329 74.6867 62.7371 74.4492C62.2413 74.2117 61.7998 73.8745 61.4401 73.4587C60.7839 72.665 60.4505 71.6534 60.5061 70.6251C60.5617 69.5968 61.0022 68.6271 61.7401 67.9087L86.3751 43.2737C99.7201 29.9337 100.295 13.8587 99.9201 7.56372V7.57372Z" fill="#009CFE"/>
</svg>
