<svg width="118" height="118" viewBox="0 0 118 118" fill="none" xmlns="http://www.w3.org/2000/svg">
<path d="M59 11.0625C49.5189 11.0625 40.2507 13.874 32.3674 19.1414C24.4841 24.4089 18.3398 31.8957 14.7115 40.6551C11.0833 49.4146 10.1339 59.0532 11.9836 68.3522C13.8333 77.6511 18.3989 86.1928 25.1031 92.8969C31.8073 99.6011 40.3489 104.167 49.6479 106.016C58.9468 107.866 68.5855 106.917 77.3449 103.288C86.1043 99.6602 93.5912 93.5159 98.8586 85.6327C104.126 77.7494 106.938 68.4811 106.938 59C106.924 46.2903 101.869 34.105 92.8821 25.1179C83.895 16.1308 71.7097 11.0759 59 11.0625ZM59 99.5625C50.9775 99.5625 43.1352 97.1836 36.4647 92.7265C29.7942 88.2694 24.5952 81.9344 21.5252 74.5226C18.4551 67.1108 17.6518 58.955 19.2169 51.0867C20.782 43.2183 24.6452 35.9908 30.318 30.318C35.9908 24.6452 43.2183 20.782 51.0867 19.2169C58.955 17.6518 67.1108 18.4551 74.5226 21.5251C81.9345 24.5952 88.2695 29.7942 92.7265 36.4647C97.1836 43.1352 99.5625 50.9775 99.5625 59C99.5503 69.7541 95.2729 80.0643 87.6686 87.6686C80.0643 95.2729 69.7541 99.5503 59 99.5625ZM81.2357 55.8749L51.7356 37.4373C51.1776 37.0886 50.5364 36.8955 49.8785 36.8781C49.2207 36.8608 48.5702 37.0198 47.9945 37.3386C47.4188 37.6575 46.939 38.1246 46.6048 38.6915C46.2705 39.2584 46.0941 39.9044 46.0938 40.5625V77.4375C46.0941 78.0956 46.2705 78.7416 46.6048 79.3085C46.939 79.8754 47.4188 80.3425 47.9945 80.6614C48.5702 80.9802 49.2207 81.1393 49.8785 81.1219C50.5364 81.1045 51.1776 80.9114 51.7356 80.5627L81.2357 62.1252C81.7652 61.7935 82.2018 61.3327 82.5044 60.7861C82.8071 60.2394 82.9659 59.6248 82.9659 59C82.9659 58.3752 82.8071 57.7606 82.5044 57.2139C82.2018 56.6673 81.7652 56.2065 81.2357 55.8749ZM53.4688 70.7862V47.2138L72.3257 59L53.4688 70.7862Z" fill="white"/>
</svg>
