<svg width="154" height="15" viewBox="0 0 154 15" fill="none" xmlns="http://www.w3.org/2000/svg">
<path d="M153.707 8.07088C154.098 7.68035 154.098 7.04719 153.707 6.65666L147.343 0.292702C146.953 -0.0978227 146.319 -0.0978227 145.929 0.292702C145.538 0.683226 145.538 1.31639 145.929 1.70692L151.586 7.36377L145.929 13.0206C145.538 13.4111 145.538 14.0443 145.929 14.4348C146.319 14.8254 146.953 14.8254 147.343 14.4348L153.707 8.07088ZM0 7.36377V8.36377H7.65V7.36377V6.36377H0V7.36377ZM22.95 7.36377V8.36377H38.25V7.36377V6.36377H22.95V7.36377ZM53.55 7.36377V8.36377H68.85V7.36377V6.36377H53.55V7.36377ZM84.15 7.36377V8.36377H99.45V7.36377V6.36377H84.15V7.36377ZM114.75 7.36377V8.36377H130.05V7.36377V6.36377H114.75V7.36377ZM145.35 7.36377V8.36377H153V7.36377V6.36377H145.35V7.36377Z" fill="#484848"/>
</svg>
