<svg width="60" height="45" viewBox="0 0 60 45" fill="none" xmlns="http://www.w3.org/2000/svg">
<path d="M31.9869 31.43C35.1221 29.4773 37.536 26.5565 38.8635 23.1097C40.191 19.6628 40.3597 15.8774 39.3442 12.3261C38.3287 8.77485 36.1842 5.65091 33.2352 3.42694C30.2861 1.20298 26.693 0 22.9994 0C19.3057 0 15.7126 1.20298 12.7635 3.42694C9.81447 5.65091 7.66998 8.77485 6.65447 12.3261C5.63897 15.8774 5.80772 19.6628 7.13519 23.1097C8.46265 26.5565 10.8766 29.4773 14.0119 31.43C8.84935 33.12 4.20435 36.2775 0.469351 40.7225C0.127885 41.1286 -0.0382683 41.6537 0.00744365 42.1824C0.0531556 42.711 0.306988 43.1998 0.713101 43.5413C1.11921 43.8827 1.64434 44.0489 2.17296 44.0032C2.70158 43.9574 3.19038 43.7036 3.53185 43.2975C8.54935 37.3075 15.4644 34.01 22.9869 34.01C30.5093 34.01 37.4244 37.3075 42.4543 43.2975C42.7958 43.7036 43.2846 43.9574 43.8132 44.0032C44.3419 44.0489 44.867 43.8827 45.2731 43.5413C45.6792 43.1998 45.933 42.711 45.9788 42.1824C46.0245 41.6537 45.8583 41.1286 45.5168 40.7225C41.7818 36.2775 37.1369 33.12 31.9869 31.43ZM9.98685 17.01C9.98685 14.4388 10.7493 11.9254 12.1777 9.78759C13.6062 7.64975 15.6365 5.9835 18.012 4.99956C20.3874 4.01562 23.0013 3.75818 25.523 4.25979C28.0448 4.7614 30.3612 5.99953 32.1792 7.81761C33.9973 9.63569 35.2355 11.9521 35.7371 14.4738C36.2387 16.9956 35.9812 19.6094 34.9973 21.9849C34.0133 24.3603 32.3471 26.3906 30.2093 27.8191C28.0714 29.2476 25.558 30.01 22.9869 30.01C19.5403 30.006 16.236 28.6351 13.7988 26.198C11.3617 23.7609 9.99082 20.4566 9.98685 17.01ZM59.4019 25.425L51.4019 33.425C51.2161 33.611 50.9955 33.7585 50.7527 33.8591C50.5099 33.9598 50.2497 34.0116 49.9869 34.0116C49.724 34.0116 49.4638 33.9598 49.221 33.8591C48.9782 33.7585 48.7576 33.611 48.5718 33.425L44.5718 29.425C44.1966 29.0497 43.9857 28.5407 43.9857 28.01C43.9857 27.4793 44.1966 26.9703 44.5718 26.595C44.9471 26.2197 45.4561 26.0089 45.9869 26.0089C46.5176 26.0089 47.0266 26.2197 47.4019 26.595L49.9869 29.1825L56.5718 22.595C56.9471 22.2197 57.4561 22.0089 57.9869 22.0089C58.5176 22.0089 59.0266 22.2197 59.4019 22.595C59.7771 22.9703 59.988 23.4793 59.988 24.01C59.988 24.5407 59.7771 25.0497 59.4019 25.425Z" fill="#009CFE"/>
</svg>
