<svg width="60" height="46" viewBox="0 0 60 46" fill="none" xmlns="http://www.w3.org/2000/svg">
<path d="M58 41.9993H56V18.6668C56 18.0085 55.8376 17.3604 55.5271 16.7799C55.2166 16.1995 54.7676 15.7046 54.22 15.3393L32.22 0.671765C31.5629 0.23374 30.7909 0 30.0013 0C29.2116 0 28.4396 0.23374 27.7825 0.671765L5.7825 15.3393C5.23444 15.7043 4.78499 16.1991 4.47404 16.7795C4.16309 17.36 4.00026 18.0083 4 18.6668V41.9993H2C1.46957 41.9993 0.960859 42.21 0.585786 42.585C0.210714 42.9601 0 43.4688 0 43.9993C0 44.5297 0.210714 45.0384 0.585786 45.4135C0.960859 45.7886 1.46957 45.9993 2 45.9993H58C58.5304 45.9993 59.0391 45.7886 59.4142 45.4135C59.7893 45.0384 60 44.5297 60 43.9993C60 43.4688 59.7893 42.9601 59.4142 42.585C59.0391 42.21 58.5304 41.9993 58 41.9993ZM8 18.6668L30 3.99927L52 18.6643V41.9993H46V27.9993C46 27.4688 45.7893 26.9601 45.4142 26.5851C45.0391 26.21 44.5304 25.9993 44 25.9993H16C15.4696 25.9993 14.9609 26.21 14.5858 26.5851C14.2107 26.9601 14 27.4688 14 27.9993V41.9993H8V18.6668ZM42 29.9993V33.9993H32V29.9993H42ZM28 33.9993H18V29.9993H28V33.9993ZM18 37.9993H28V41.9993H18V37.9993ZM32 37.9993H42V41.9993H32V37.9993Z" fill="#009CFE"/>
</svg>
