<svg width="48" height="50" viewBox="0 0 48 50" fill="none" xmlns="http://www.w3.org/2000/svg">
<path d="M46.83 4.18543C46.4809 4.0269 46.0935 3.97207 45.7141 4.02747C45.3347 4.08288 44.9792 4.24618 44.69 4.49793C37.69 10.5529 31.76 7.61793 24.8875 4.21543C17.7675 0.687927 9.695 -3.30457 0.69 4.49793C0.474839 4.68443 0.301981 4.91472 0.182987 5.1734C0.0639933 5.43208 0.00160669 5.71319 0 5.99793V47.9979C0 48.5284 0.210714 49.0371 0.585787 49.4121C0.96086 49.7872 1.46957 49.9979 2 49.9979C2.53043 49.9979 3.03914 49.7872 3.41421 49.4121C3.78929 49.0371 4 48.5284 4 47.9979V36.9404C10.6975 31.6504 16.4675 34.5029 23.1125 37.7929C30.235 41.3154 38.305 45.3079 47.31 37.5104C47.5252 37.3239 47.698 37.0936 47.817 36.835C47.936 36.5763 47.9984 36.2952 48 36.0104V5.99793C47.9986 5.61558 47.8877 5.24164 47.6803 4.9204C47.473 4.59916 47.1779 4.3441 46.83 4.18543ZM44 9.89793V20.0604C40.5 22.8254 37.25 23.3654 34 22.7804V11.8329C37.457 12.373 40.994 11.6885 44 9.89793ZM30 10.8379V21.5879C28.335 20.9204 26.6425 20.0879 24.8875 19.2179C22.6825 18.1254 20.3875 16.9904 18 16.1729V5.42293C19.665 6.08793 21.3575 6.92293 23.1125 7.79293C25.3175 8.88543 27.615 10.0204 30 10.8379ZM14 4.22543V15.1704C10.5427 14.6314 7.00576 15.3166 4 17.1079V6.94293C7.5 4.17793 10.75 3.64043 14 4.22543ZM11.645 29.9979C8.95385 30.0026 6.31342 30.7305 4 32.1054V21.9429C7.5 19.1779 10.75 18.6379 14 19.2229V30.1729C13.2202 30.0581 12.4332 29.9996 11.645 29.9979ZM18 31.1654V20.4154C19.665 21.0804 21.3575 21.9154 23.1125 22.7854C25.3175 23.8779 27.6125 25.0104 30 25.8279V36.5779C28.335 35.9104 26.6425 35.0779 24.8875 34.2079C22.6825 33.1154 20.385 31.9829 18 31.1654ZM34 37.7779V26.8279C34.7797 26.9444 35.5667 27.0046 36.355 27.0079C39.047 26.9996 41.6873 26.2683 44 24.8904V35.0604C40.5 37.8254 37.25 38.3629 34 37.7779Z" fill="#009CFE"/>
</svg>
