<svg width="52" height="52" viewBox="0 0 52 52" fill="none" xmlns="http://www.w3.org/2000/svg">
<path d="M50.6934 11.2536C50.5721 10.9537 50.3799 10.6877 50.1332 10.4785C49.8865 10.2693 49.5928 10.123 49.2771 10.0522C48.9615 9.98137 48.6334 9.98819 48.321 10.072C48.0086 10.1559 47.7212 10.3142 47.4834 10.5336L37.4084 19.8311L33.1009 18.9061L32.1759 14.5986L41.4734 4.52356C41.6927 4.28579 41.8511 3.99837 41.9349 3.68596C42.0188 3.37355 42.0256 3.04546 41.9548 2.72984C41.884 2.41421 41.7377 2.12046 41.5285 1.87379C41.3192 1.62712 41.0533 1.43488 40.7534 1.31356C38.0208 0.208142 35.0584 -0.209233 32.1267 0.098105C29.195 0.405443 26.3836 1.42809 23.9396 3.07619C21.4956 4.72428 19.4938 6.94739 18.11 9.55018C16.7262 12.153 16.0028 15.0558 16.0034 18.0036C16.0002 20.4928 16.5108 22.9558 17.5034 25.2386L2.45091 38.2536C2.41341 38.2836 2.37841 38.3186 2.34341 38.3511C0.842951 39.8515 0 41.8866 0 44.0086C0 45.0593 0.20695 46.0997 0.609033 47.0704C1.01112 48.0411 1.60046 48.9231 2.34341 49.6661C3.08637 50.409 3.96838 50.9984 4.9391 51.4004C5.90981 51.8025 6.95022 52.0095 8.00091 52.0095C10.1229 52.0095 12.158 51.1665 13.6584 49.6661C13.6909 49.6336 13.7259 49.5961 13.7559 49.5611L26.7684 34.5036C29.5095 35.7068 32.5074 36.2074 35.4907 35.9601C38.474 35.7127 41.3485 34.7252 43.854 33.087C46.3595 31.4488 48.4168 29.2115 49.8398 26.5778C51.2628 23.9441 52.0064 20.9971 52.0034 18.0036C52.0073 15.69 51.5624 13.3977 50.6934 11.2536ZM34.0034 32.0036C31.6361 32.0003 29.3081 31.3983 27.2359 30.2536C26.8345 30.0318 26.369 29.9547 25.9175 30.0353C25.466 30.1158 25.0559 30.3491 24.7559 30.6961L10.7809 46.8811C10.0247 47.5995 9.01766 47.9942 7.97462 47.9808C6.93157 47.9675 5.93501 47.5472 5.1974 46.8096C4.45979 46.072 4.03951 45.0754 4.02615 44.0324C4.0128 42.9893 4.40743 41.9823 5.12591 41.2261L21.2984 27.2536C21.6459 26.9534 21.8796 26.5429 21.9602 26.0908C22.0408 25.6388 21.9633 25.1728 21.7409 24.7711C20.466 22.4652 19.8677 19.8463 20.0147 17.2155C20.1618 14.5847 21.0483 12.0489 22.5723 9.89944C24.0963 7.75001 26.1959 6.07429 28.6298 5.06493C31.0637 4.05556 33.733 3.75353 36.3309 4.19356L28.5309 12.6461C28.3139 12.8815 28.1566 13.1656 28.0722 13.4745C27.9878 13.7833 27.9788 14.108 28.0459 14.4211L29.4609 21.0036C29.5418 21.38 29.7297 21.7251 30.002 21.9974C30.2743 22.2697 30.6194 22.4576 30.9959 22.5386L37.5834 23.9536C37.8965 24.0207 38.2211 24.0117 38.53 23.9273C38.8389 23.8429 39.123 23.6856 39.3584 23.4686L47.8109 15.6686C48.1479 17.6761 48.0435 19.7329 47.505 21.696C46.9665 23.6591 46.0069 25.4813 44.6928 27.0359C43.3787 28.5906 41.7417 29.8403 39.8957 30.6982C38.0497 31.556 36.039 32.0015 34.0034 32.0036Z" fill="white"/>
</svg>
