<svg width="52" height="56" viewBox="0 0 52 56" fill="none" xmlns="http://www.w3.org/2000/svg">
<path d="M49.92 12.5327L27.92 0.495162C27.3322 0.170368 26.6716 0 26 0C25.3284 0 24.6678 0.170368 24.08 0.495162L2.08 12.5377C1.45172 12.8814 0.927258 13.3876 0.561379 14.0032C0.1955 14.6189 0.00162564 15.3215 0 16.0377V39.9477C0.00162564 40.6638 0.1955 41.3664 0.561379 41.9821C0.927258 42.5978 1.45172 43.1039 2.08 43.4477L24.08 55.4902C24.6678 55.815 25.3284 55.9853 26 55.9853C26.6716 55.9853 27.3322 55.815 27.92 55.4902L49.92 43.4477C50.5483 43.1039 51.0727 42.5978 51.4386 41.9821C51.8045 41.3664 51.9984 40.6638 52 39.9477V16.0402C51.9997 15.3227 51.8065 14.6185 51.4405 14.0015C51.0746 13.3844 50.5494 12.877 49.92 12.5327ZM26 3.99516L46.085 14.9952L38.6425 19.0702L18.555 8.07016L26 3.99516ZM26 25.9952L5.915 14.9952L14.39 10.3552L34.475 21.3552L26 25.9952ZM4 18.4952L24 29.4402V50.8877L4 39.9502V18.4952ZM48 39.9402L28 50.8877V29.4502L36 25.0727V33.9952C36 34.5256 36.2107 35.0343 36.5858 35.4094C36.9609 35.7845 37.4696 35.9952 38 35.9952C38.5304 35.9952 39.0391 35.7845 39.4142 35.4094C39.7893 35.0343 40 34.5256 40 33.9952V22.8827L48 18.4952V39.9377V39.9402Z" fill="white"/>
</svg>
