<svg width="64" height="37" viewBox="0 0 64 37" fill="none" xmlns="http://www.w3.org/2000/svg">
<path d="M60 12H52.8275L42 1.17252C41.6299 0.79947 41.1894 0.503705 40.704 0.302419C40.2186 0.101133 39.698 -0.0016586 39.1725 2.02372e-05H11.07C10.413 0.0012367 9.76639 0.164274 9.18734 0.474725C8.6083 0.785176 8.11464 1.23348 7.75 1.78002L0.335 12.89C0.11713 13.2193 0.000652144 13.6052 0 14L0 26C0 27.0609 0.421427 28.0783 1.17157 28.8284C1.92172 29.5786 2.93913 30 4 30H8.25C8.6906 31.7209 9.6914 33.2461 11.0946 34.3353C12.4978 35.4245 14.2237 36.0157 16 36.0157C17.7763 36.0157 19.5022 35.4245 20.9054 34.3353C22.3086 33.2461 23.3094 31.7209 23.75 30H40.25C40.6906 31.7209 41.6914 33.2461 43.0946 34.3353C44.4978 35.4245 46.2237 36.0157 48 36.0157C49.7763 36.0157 51.5022 35.4245 52.9054 34.3353C54.3086 33.2461 55.3094 31.7209 55.75 30H60C61.0609 30 62.0783 29.5786 62.8284 28.8284C63.5786 28.0783 64 27.0609 64 26V16C64 14.9392 63.5786 13.9217 62.8284 13.1716C62.0783 12.4214 61.0609 12 60 12ZM11.07 4.00002H39.1725L47.1725 12H5.75L11.07 4.00002ZM16 32C15.2089 32 14.4355 31.7654 13.7777 31.3259C13.1199 30.8864 12.6072 30.2617 12.3045 29.5308C12.0017 28.7999 11.9225 27.9956 12.0769 27.2197C12.2312 26.4437 12.6122 25.731 13.1716 25.1716C13.731 24.6122 14.4437 24.2312 15.2196 24.0769C15.9956 23.9225 16.7998 24.0018 17.5307 24.3045C18.2616 24.6073 18.8864 25.1199 19.3259 25.7777C19.7654 26.4355 20 27.2089 20 28C20 29.0609 19.5786 30.0783 18.8284 30.8284C18.0783 31.5786 17.0609 32 16 32ZM48 32C47.2089 32 46.4355 31.7654 45.7777 31.3259C45.1199 30.8864 44.6072 30.2617 44.3045 29.5308C44.0017 28.7999 43.9225 27.9956 44.0769 27.2197C44.2312 26.4437 44.6122 25.731 45.1716 25.1716C45.731 24.6122 46.4437 24.2312 47.2196 24.0769C47.9956 23.9225 48.7998 24.0018 49.5307 24.3045C50.2616 24.6073 50.8864 25.1199 51.3259 25.7777C51.7654 26.4355 52 27.2089 52 28C52 29.0609 51.5786 30.0783 50.8284 30.8284C50.0783 31.5786 49.0609 32 48 32ZM60 26H55.75C55.3094 24.2792 54.3086 22.7539 52.9054 21.6647C51.5022 20.5755 49.7763 19.9843 48 19.9843C46.2237 19.9843 44.4978 20.5755 43.0946 21.6647C41.6914 22.7539 40.6906 24.2792 40.25 26H23.75C23.3094 24.2792 22.3086 22.7539 20.9054 21.6647C19.5022 20.5755 17.7763 19.9843 16 19.9843C14.2237 19.9843 12.4978 20.5755 11.0946 21.6647C9.6914 22.7539 8.6906 24.2792 8.25 26H4V16H60V26Z" fill="white"/>
</svg>
